<?xml version="1.0" standalone="no"?><!DOCTYPE svg PUBLIC "-//W3C//DTD SVG 1.1//EN" "http://www.w3.org/Graphics/SVG/1.1/DTD/svg11.dtd"><svg t="1526704819308" class="icon" style="" viewBox="0 0 1024 1024" version="1.1" xmlns="http://www.w3.org/2000/svg" p-id="485" xmlns:xlink="http://www.w3.org/1999/xlink" width="32" height="32"><defs><style type="text/css"></style></defs><path d="M305.4 764.6c-2.7 0-5.4-0.6-7.8-1.9-5.6-2.9-9.1-8.7-9.1-15V276.4c0-6.3 3.5-12.1 9.1-15 5.6-2.9 12.4-2.5 17.5 1.1l336.6 235.6c4.5 3.2 7.2 8.3 7.2 13.9s-2.7 10.7-7.2 13.9L315.1 761.5c-2.9 2-6.3 3.1-9.7 3.1z m16.9-455.7v406.2L612.5 512 322.3 308.9zM719.2 719.9c-9.3 0-16.9-7.6-16.9-16.9V321c0-9.3 7.6-16.9 16.9-16.9s16.9 7.6 16.9 16.9v382c0 9.3-7.6 16.9-16.9 16.9z" fill="#d4237a" p-id="486"></path><path d="M512.3 977.4c-62.8 0-123.8-12.3-181.2-36.6-55.4-23.4-105.2-57-147.9-99.7s-76.3-92.5-99.7-147.9C59.2 635.8 46.9 574.8 46.9 512s12.3-123.8 36.6-181.2c23.4-55.4 57-105.2 99.7-147.9s92.5-76.3 147.9-99.7c57.4-24.3 118.3-36.6 181.2-36.6 62.8 0 123.8 12.3 181.2 36.6 55.4 23.4 105.2 57 147.9 99.7s76.3 92.5 99.7 147.9c24.3 57.4 36.6 118.3 36.6 181.2s-12.3 123.8-36.6 181.2c-23.4 55.4-57 105.2-99.7 147.9s-92.5 76.3-147.9 99.7c-57.4 24.3-118.4 36.6-181.2 36.6z m0-894.1C275.9 83.3 83.6 275.6 83.6 512c0 236.4 192.3 428.7 428.7 428.7C748.7 940.7 941 748.4 941 512c0-236.4-192.3-428.7-428.7-428.7z" fill="#d4237a" p-id="487"></path></svg>